<svg width="575" height="118" viewBox="0 0 575 118" fill="none" xmlns="http://www.w3.org/2000/svg">
<path d="M88.6615 117.934C72.9021 117.934 57.1427 118.082 41.3938 117.934C32.1119 117.844 23.1249 114.662 15.8552 108.89C8.58544 103.118 3.44803 95.0867 1.25594 86.0669C-4.73305 62.3539 11.3538 38.0916 35.5316 34.5214C37.285 34.2574 37.7709 33.613 38.056 31.9441C39.3943 23.3742 43.6413 15.5259 50.0836 9.71789C56.5259 3.90989 64.7708 0.496073 73.4331 0.0500065C82.0955 -0.39606 90.6475 2.1528 97.6522 7.26834C104.657 12.3839 109.688 19.7544 111.899 28.1416C112.003 28.7709 112.306 29.35 112.765 29.7933C113.223 30.2366 113.812 30.5204 114.445 30.6027C124.381 32.9577 131.289 38.8274 135.265 47.9218C135.771 49.079 135.977 50.4724 136.967 51.2567C137.467 51.6532 138.09 51.8645 138.728 51.8546C155.914 53.3651 169.465 68.628 168.884 85.7078C168.676 94.2115 165.191 102.306 159.156 108.301C153.122 114.296 145.004 117.729 136.499 117.881C120.518 118.103 104.59 117.934 88.6615 117.934Z" fill="url(#paint0_linear_67_353)"/>
<path fill-rule="evenodd" clip-rule="evenodd" d="M86.7068 50.0516C87.362 49.3731 88.1459 48.832 89.0125 48.4597C89.8791 48.0874 90.8112 47.8915 91.7544 47.8833C92.6976 47.8751 93.633 48.0548 94.506 48.412C95.3789 48.7691 96.172 49.2966 96.839 49.9635C97.5059 50.6305 98.0334 51.4236 98.3906 52.2966C98.7477 53.1696 98.9275 54.1049 98.9193 55.0481C98.9111 55.9913 98.7151 56.9234 98.3428 57.79C97.9705 58.6567 97.4294 59.4405 96.7509 60.0958L86.0959 70.7508C84.7638 72.0825 82.9574 72.8306 81.0738 72.8306C79.1902 72.8306 77.3838 72.0825 76.0517 70.7508C75.3819 70.1038 74.4847 69.7459 73.5535 69.7539C72.6222 69.762 71.7314 70.1356 71.0729 70.7941C70.4144 71.4526 70.0409 72.3434 70.0328 73.2746C70.0247 74.2059 70.3827 75.103 71.0296 75.7729C73.6938 78.4363 77.3067 79.9324 81.0738 79.9324C84.8409 79.9324 88.4538 78.4363 91.118 75.7729L101.773 65.1178C104.361 62.4384 105.793 58.8498 105.76 55.1248C105.728 51.3998 104.234 47.8366 101.6 45.2026C98.9659 42.5685 95.4027 41.0744 91.6777 41.042C87.9528 41.0097 84.3641 42.4416 81.6847 45.0295L76.3572 50.357C76.0179 50.6847 75.7474 51.0766 75.5612 51.5099C75.3751 51.9432 75.2771 52.4093 75.273 52.8809C75.2689 53.3524 75.3588 53.8201 75.5374 54.2566C75.7159 54.6931 75.9797 55.0897 76.3131 55.4231C76.6466 55.7566 77.0432 56.0203 77.4797 56.1989C77.9161 56.3775 78.3838 56.4674 78.8554 56.4633C79.327 56.4592 79.7931 56.3612 80.2264 56.1751C80.6597 55.9889 81.0516 55.7183 81.3792 55.3791L86.7068 50.0516ZM68.9484 67.81C70.2804 66.4783 72.0869 65.7302 73.9704 65.7302C75.854 65.7302 77.6604 66.4783 78.9925 67.81C79.3201 68.1492 79.7121 68.4198 80.1454 68.606C80.5787 68.7921 81.0447 68.8901 81.5163 68.8942C81.9879 68.8983 82.4556 68.8084 82.8921 68.6298C83.3286 68.4512 83.7251 68.1875 84.0586 67.854C84.3921 67.5206 84.6558 67.124 84.8344 66.6875C85.013 66.251 85.1028 65.7833 85.0988 65.3118C85.0947 64.8402 84.9967 64.3741 84.8105 63.9408C84.6244 63.5075 84.3538 63.1156 84.0146 62.7879C81.3504 60.1246 77.7376 58.6284 73.9704 58.6284C70.2033 58.6284 66.5904 60.1246 63.9263 62.7879L53.2712 73.443C51.9143 74.7535 50.832 76.3212 50.0875 78.0544C49.3429 79.7877 48.951 81.6519 48.9346 83.5383C48.9182 85.4246 49.2777 87.2954 49.992 89.0413C50.7063 90.7873 51.7612 92.3735 53.0951 93.7074C54.429 95.0413 56.0152 96.0962 57.7612 96.8106C59.5072 97.5249 61.3779 97.8843 63.2642 97.8679C65.1506 97.8516 67.0148 97.4596 68.7481 96.7151C70.4814 95.9705 72.049 94.8882 73.3595 93.5313L78.6871 88.2038C79.0263 87.8762 79.2969 87.4843 79.483 87.0509C79.6691 86.6176 79.7671 86.1516 79.7712 85.68C79.7753 85.2084 79.6855 84.7407 79.5069 84.3042C79.3283 83.8677 79.0646 83.4712 78.7311 83.1377C78.3976 82.8042 78.0011 82.5405 77.5646 82.3619C77.1281 82.1833 76.6604 82.0935 76.1888 82.0976C75.7172 82.1017 75.2512 82.1996 74.8179 82.3858C74.3845 82.5719 73.9926 82.8425 73.665 83.1817L68.3375 88.5092C67.6822 89.1877 66.8984 89.7288 66.0317 90.1011C65.1651 90.4734 64.233 90.6694 63.2898 90.6776C62.3466 90.6857 61.4113 90.506 60.5383 90.1489C59.6653 89.7917 58.8722 89.2642 58.2052 88.5973C57.5383 87.9303 57.0108 87.1372 56.6537 86.2643C56.2965 85.3913 56.1168 84.4559 56.125 83.5127C56.1332 82.5695 56.3291 81.6374 56.7014 80.7708C57.0737 79.9042 57.6148 79.1203 58.2933 78.4651L68.9484 67.81Z" fill="white"/>
<path d="M237.043 77.5798H207.792V26.9049H193V91.0026H237.043V77.5798Z" fill="black"/>
<path d="M243.286 33.3901C243.286 37.8392 246.527 40.7802 251.513 40.7802C256.416 40.7802 259.574 37.8392 259.574 33.3901C259.574 28.941 256.416 26 251.513 26C246.527 26 243.286 28.941 243.286 33.3901ZM258.909 91.0026V45.7572H244.117V91.0026H258.909Z" fill="black"/>
<path d="M298.675 68.3045V91.0026H313.384V68.3045C313.384 54.4292 305.49 45.2293 292.775 45.2293C288.122 45.2293 283.136 47.1899 281.474 49.9801V45.7572H266.682V91.0026H281.474V68.3799C281.474 62.7242 285.13 58.5767 290.116 58.5767C295.268 58.5767 298.675 62.498 298.675 68.3045Z" fill="black"/>
<path d="M319.651 69.9635C319.485 83.9142 332.448 91.4551 345.495 91.4551C358.209 91.3042 371.007 85.3469 370.923 71.8487C370.923 58.4259 360.287 54.8063 349.733 52.544C341.839 50.885 336.271 49.9047 336.188 45.8326C336.188 41.4589 340.343 39.3474 344.996 39.3474C349.733 39.3474 354.137 40.7802 354.553 45.7572H369.261C369.345 31.8819 357.378 26.5279 344.996 26.5279C332.033 26.5279 321.396 32.4098 321.479 46.1342C321.479 60.839 336.188 62.875 347.157 65.1373C353.389 66.4947 356.132 68.2291 356.215 71.9995C356.215 77.5798 350.398 78.7109 345.329 78.7109C340.093 78.7109 334.526 75.1667 334.36 69.9635H319.651Z" fill="black"/>
<path d="M409.144 68.3045V91.0026H423.852V68.3045C423.852 54.4292 416.041 45.2293 403.243 45.2293C398.59 45.2293 393.604 47.1899 391.942 49.9801V26.9049H377.15V91.0026H391.942V68.3799C391.942 62.7242 395.598 58.5767 400.584 58.5767C405.736 58.5767 409.144 62.498 409.144 68.3045Z" fill="black"/>
<path d="M467.966 91.0026H482.758V45.7572H467.966V49.9801C466.055 47.2654 460.487 45.2293 455.086 45.2293C440.377 45.2293 431.319 54.4292 431.319 68.3045C431.319 82.2551 440.377 91.4551 455.086 91.4551C460.487 91.4551 466.138 89.3436 467.966 86.7797V91.0026ZM446.111 68.3045C446.111 62.4226 450.349 58.5767 457.08 58.5767C463.396 58.5767 467.966 62.7996 467.966 68.3799C468.049 74.0356 463.562 78.0322 457.08 78.0322C450.349 78.0322 446.111 74.2618 446.111 68.3045Z" fill="black"/>
<path d="M521.749 45.2293C514.769 45.2293 509.284 48.0949 506.044 51.4883V45.7572H491.252V91.0026H506.044V69.8881C506.044 62.4226 511.445 58.6521 521.749 58.5767V45.2293Z" fill="black"/>
<path d="M557.549 77.1273C556.386 78.1077 553.81 78.8617 550.569 78.8617C546.331 78.8617 542.924 76.5995 541.428 72.9798H574.668C574.917 71.5471 575 69.8881 575 68.3045C575 55.1079 564.446 45.1539 550.403 45.1539C536.359 45.1539 525.722 55.1079 525.722 68.2291C525.722 81.8027 536.026 91.3796 550.652 91.3796C560.873 91.3796 569.765 85.5731 573.172 77.1273H557.549ZM541.428 63.4029C542.924 59.9341 546.164 57.7472 550.403 57.7472C554.641 57.7472 557.798 59.8587 559.294 63.4029H541.428Z" fill="black"/>
<defs>
<linearGradient id="paint0_linear_67_353" x1="84.4512" y1="0" x2="84.4512" y2="118" gradientUnits="userSpaceOnUse">
<stop stop-color="#00C6FB"/>
<stop offset="1" stop-color="#007AFF"/>
</linearGradient>
</defs>
</svg>
